<?xml version="1.0" encoding="utf-8"?>
<svg viewBox="0 0 500 500" xmlns="http://www.w3.org/2000/svg">
  <path d="M 483.521 34.954 C 505.105 56.508 505.105 91.455 483.521 113.009 L 453.955 142.674 L 357.372 46.111 L 387.037 16.485 C 408.62 -5.072 443.508 -5.072 465.092 16.485 L 483.521 34.954 Z M 170.218 233.343 L 335.099 68.403 L 431.682 164.947 L 266.703 329.828 C 260.691 335.938 253.299 340.472 245.119 343.231 L 157.603 372.403 C 148.241 375.163 139.765 372.995 133.359 365.8 C 127.051 360.281 124.883 350.918 127.643 342.443 L 156.815 254.927 C 159.574 246.747 164.108 239.355 170.218 233.343 Z M 189.535 57.326 C 206.979 57.326 221.072 72.336 221.072 88.863 C 221.072 107.194 206.979 120.401 189.535 120.401 L 94.923 120.401 C 77.508 120.401 63.386 135.381 63.386 151.938 L 63.386 405.123 C 63.386 422.567 77.508 436.66 94.923 436.66 L 347.221 436.66 C 364.665 436.66 378.758 422.567 378.758 405.123 L 378.758 309.624 C 378.758 293.067 392.852 278.087 410.296 278.087 C 427.74 278.087 441.833 293.067 441.833 309.624 L 441.833 405.123 C 441.833 457.357 399.455 499.735 347.221 499.735 L 94.923 499.735 C 42.67 499.735 0.311 457.357 0.311 405.123 L 0.311 151.938 C 0.311 99.704 42.67 57.326 94.923 57.326 L 189.535 57.326 Z" style="fill: rgb(255, 255, 255);"/>
</svg>