<?xml version="1.0" encoding="utf-8"?>
<svg viewBox="0 0 500 500" xmlns="http://www.w3.org/2000/svg">
  <path d="M 499.965 249.996 C 499.965 271.26 482.745 288.472 461.509 288.472 L 288.458 288.472 L 288.458 461.556 C 288.458 482.82 271.239 500.009 250.004 500.009 C 228.769 500.009 211.549 482.82 211.549 461.556 L 211.549 288.472 L 38.5 288.472 C 17.264 288.472 0.043 271.26 0.043 249.996 C 0.043 228.734 17.264 211.546 38.5 211.546 L 211.549 211.546 L 211.549 38.462 C 211.549 17.197 228.769 -0.015 250.004 -0.015 C 271.239 -0.015 288.458 17.197 288.458 38.462 L 288.458 211.546 L 461.509 211.546 C 482.779 211.534 499.965 228.721 499.965 249.996 Z" style="fill: rgb(255, 255, 255);"/>
</svg>