<?xml version="1.0" encoding="utf-8"?>
<svg viewBox="0 0 500 500" xmlns="http://www.w3.org/2000/svg">
  <path d="M 165.962 17.37 C 171.233 6.788 182.067 0.104 193.876 0.104 L 311.391 0.104 C 323.2 0.104 334.034 6.788 339.305 17.37 L 346.332 31.337 L 440.032 31.337 C 457.307 31.337 471.264 45.324 471.264 62.57 C 471.264 79.816 457.307 93.803 440.032 93.803 L 65.236 93.803 C 47.989 93.803 34.003 79.816 34.003 62.57 C 34.003 45.324 47.989 31.337 65.236 31.337 L 158.935 31.337 L 165.962 17.37 Z M 64.358 125.036 L 440.032 125.036 L 440.032 437.365 C 440.032 471.819 412.019 499.831 377.566 499.831 L 126.824 499.831 C 93.199 499.831 64.358 471.819 64.358 437.365 L 64.358 125.036 Z M 142.44 203.118 L 142.44 421.749 C 142.44 430.338 150.346 437.365 158.056 437.365 C 167.524 437.365 173.672 430.338 173.672 421.749 L 173.672 203.118 C 173.672 194.529 167.524 187.502 158.056 187.502 C 150.346 187.502 142.44 194.529 142.44 203.118 Z M 236.138 203.118 L 236.138 421.749 C 236.138 430.338 244.045 437.365 251.756 437.365 C 261.222 437.365 268.25 430.338 268.25 421.749 L 268.25 203.118 C 268.25 194.529 261.222 187.502 251.756 187.502 C 244.045 187.502 236.138 194.529 236.138 203.118 Z M 330.716 203.118 L 330.716 421.749 C 330.716 430.338 337.743 437.365 346.332 437.365 C 354.922 437.365 361.949 430.338 361.949 421.749 L 361.949 203.118 C 361.949 194.529 354.922 187.502 346.332 187.502 C 337.743 187.502 330.716 194.529 330.716 203.118 Z" style="fill: rgb(255, 255, 255);"/>
</svg>